<svg width="26" height="24" viewBox="0 0 26 24" fill="none" xmlns="http://www.w3.org/2000/svg">
<path fill-rule="evenodd" clip-rule="evenodd" d="M21.7173 13.5801C22.0888 13.7701 22.3754 14.0701 22.5771 14.3701C22.9698 14.9901 22.938 15.7501 22.5559 16.4201L21.8128 17.6201C21.4201 18.2601 20.6877 18.6601 19.9341 18.6601C19.5626 18.6601 19.1486 18.5601 18.8089 18.3601C18.533 18.1901 18.2145 18.1301 17.8749 18.1301C16.824 18.1301 15.943 18.9601 15.9112 19.9501C15.9112 21.1001 14.9346 22.0001 13.714 22.0001H12.2704C11.0391 22.0001 10.0626 21.1001 10.0626 19.9501C10.0413 18.9601 9.16032 18.1301 8.10948 18.1301C7.7592 18.1301 7.44077 18.1901 7.17541 18.3601C6.83574 18.5601 6.41116 18.6601 6.05027 18.6601C5.28602 18.6601 4.55362 18.2601 4.16088 17.6201L3.42848 16.4201C3.03574 15.7701 3.01451 14.9901 3.40725 14.3701C3.57708 14.0701 3.89551 13.7701 4.25641 13.5801C4.55362 13.4401 4.74468 13.2101 4.92512 12.9401C5.45585 12.0801 5.13742 10.9501 4.23518 10.4401C3.18434 9.87009 2.84468 8.60009 3.4497 7.61009L4.16088 6.43009C4.77652 5.44009 6.09272 5.09009 7.15418 5.67009C8.07764 6.15009 9.27708 5.83009 9.81842 4.98009C9.98826 4.70009 10.0838 4.40009 10.0626 4.10009C10.0413 3.71009 10.1581 3.34009 10.3598 3.04009C10.7525 2.42009 11.4637 2.02009 12.2385 2.00009H13.7352C14.5207 2.00009 15.2318 2.42009 15.6246 3.04009C15.8156 3.34009 15.943 3.71009 15.9112 4.10009C15.8899 4.40009 15.9855 4.70009 16.1553 4.98009C16.6966 5.83009 17.8961 6.15009 18.8302 5.67009C19.881 5.09009 21.2078 5.44009 21.8128 6.43009L22.524 7.61009C23.1397 8.60009 22.8 9.87009 21.7385 10.4401C20.8363 10.9501 20.5179 12.0801 21.0592 12.9401C21.229 13.2101 21.4201 13.4401 21.7173 13.5801ZM9.98826 12.0101C9.98826 13.5801 11.3363 14.8301 13.0028 14.8301C14.6693 14.8301 15.9855 13.5801 15.9855 12.0101C15.9855 10.4401 14.6693 9.18009 13.0028 9.18009C11.3363 9.18009 9.98826 10.4401 9.98826 12.0101Z" fill="#67686D"/>
</svg>
